<?xml version="1.0" encoding="utf-8"?>
<!-- Generator: Adobe Illustrator 22.1.0, SVG Export Plug-In . SVG Version: 6.00 Build 0)  -->
<svg version="1.1" id="v-circle" xmlns="http://www.w3.org/2000/svg" xmlns:xlink="http://www.w3.org/1999/xlink" x="0px" y="0px"
	 viewBox="0 0 30 30" enable-background="new 0 0 30 30" xml:space="preserve">
<rect fill="none" width="30" height="30"/>
<circle fill-rule="evenodd" clip-rule="evenodd" cx="15" cy="15" r="13.5"/>
<path fill-rule="evenodd" clip-rule="evenodd" fill="#FFFFFF" d="M15.0001,0.9999C7.268,0.9999,1,7.2681,1,15.0001
	s6.268,14,14.0001,14S29,22.7321,29,15.0001S22.7322,0.9999,15.0001,0.9999z M15,28C7.8319,28,2,22.1681,2,15S7.8319,2,15,2
	s13,5.8319,13,13S22.1681,28,15,28z M19.0523,11.3425l-5.6862,5.8323l-2.4185-2.4804c-0.4454-0.4573-1.1678-0.4573-1.6132,0
	c-0.4459,0.4568-0.4459,1.1977,0,1.6545l3.2253,3.3079C12.7824,19.8852,13.0748,20,13.3666,20c0.2918,0,0.5836-0.1142,0.8063-0.3431
	l6.4931-6.6593c0.4454-0.4573,0.4454-1.1977,0-1.655C20.2201,10.8858,19.4982,10.8858,19.0523,11.3425z"/>
</svg>
